<svg xmlns="http://www.w3.org/2000/svg" width="174" height="269" viewBox="0 0 174 269">
	<defs>
		<linearGradient id="wash" x1="0" y1="0" x2="1" y2="1">
			<stop offset="0" stop-color="#7ec9ec"/>
			<stop offset=".28" stop-color="#cceffc"/>
			<stop offset=".54" stop-color="#ffffff"/>
		</linearGradient>
		<radialGradient id="bright" cx=".86" cy=".22" r=".82">
			<stop offset="0" stop-color="#ffffff"/>
			<stop offset=".4" stop-color="#ffffff" stop-opacity=".97"/>
			<stop offset=".72" stop-color="#ffffff" stop-opacity=".12"/>
			<stop offset="1" stop-color="#ffffff" stop-opacity="0"/>
		</radialGradient>
		<linearGradient id="curve" x1="0" y1="0" x2="1" y2=".35">
			<stop offset="0" stop-color="#60b7e3" stop-opacity=".66"/>
			<stop offset=".5" stop-color="#d8f4ff" stop-opacity=".42"/>
			<stop offset="1" stop-color="#ffffff" stop-opacity="0"/>
		</linearGradient>
	</defs>
	<rect width="174" height="269" fill="#ffffff"/>
	<path d="M0 0h174v269H0z" fill="url(#wash)"/>
	<path d="M0 0c38 20 51 45 69 67 31 38 62 30 105 19v183H0z" fill="url(#bright)"/>
	<path d="M0 0c21 22 45 22 73 37 23 12 38 28 49 49-45-25-86-16-122 12z" fill="url(#curve)"/>
	<path d="M0 15c30 18 50 16 75 33 17 12 30 26 39 44-34-29-69-31-114-10z" fill="#bcecff" opacity=".34"/>
	<path d="M0 58c41 4 72 23 94 58-30-19-61-15-94 14z" fill="#dff7ff" opacity=".46"/>
</svg>
